#N canvas 304 140 946 585 10;
#X obj 168 131 mtof;
#X obj 156 359 dac~;
#X obj 168 171 phasor~;
#X floatatom 133 96 5 0 0 0 - - -;
#X obj 168 302 *~ 0.1;
#X msg 298 182 delay 100;
#X obj 252 278 line;
#X obj 251 137 sel 1;
#X obj 251 102 > 0;
#X obj 377 143 sel 1;
#X text 350 101 Basic DR Envelope;
#X obj 168 252 moog~;
#X obj 44 100 vsl 15 128 0 10000 0 0 empty empty empty 0 -9 0 10 -262144
-1 -1 0 1;
#X obj 94 63 vsl 15 128 0 20 0 0 empty empty empty 0 -9 0 10 -262144
-1 -1 0 1;
#X obj 662 118 > 0;
#X obj 663 148 sel 1;
#X obj 664 318 osc~;
#X obj 668 378 dac~;
#X obj 664 283 line;
#X floatatom 569 186 5 0 0 0 - - -;
#X floatatom 780 177 5 0 0 0 - - -;
#X floatatom 570 125 5 0 0 0 - - -;
#X obj 743 209 delay 10;
#X msg 682 206 40 3;
#X msg 609 220 1000 0;
#X obj 178 62 notein 2;
#X msg 377 249 0 100;
#X msg 749 248 0 300;
#X text 752 101 basic kick drum;
#X obj 299 102 == 0;
#X msg 298 215 0.7 10;
#X msg 251 179 0.5 10;
#X obj 627 73 notein 3;
#X connect 0 0 2 0;
#X connect 2 0 11 0;
#X connect 4 0 1 0;
#X connect 4 0 1 1;
#X connect 5 0 30 0;
#X connect 6 0 4 1;
#X connect 7 0 31 0;
#X connect 7 0 5 0;
#X connect 8 0 7 0;
#X connect 9 0 26 0;
#X connect 11 0 4 0;
#X connect 12 0 11 1;
#X connect 13 0 11 2;
#X connect 14 0 15 0;
#X connect 15 0 19 0;
#X connect 15 0 24 0;
#X connect 15 0 23 0;
#X connect 15 0 22 0;
#X connect 15 1 20 0;
#X connect 16 0 17 0;
#X connect 16 0 17 1;
#X connect 18 0 16 0;
#X connect 22 0 27 0;
#X connect 23 0 18 0;
#X connect 24 0 18 0;
#X connect 25 0 3 0;
#X connect 25 0 0 0;
#X connect 25 1 8 0;
#X connect 25 1 29 0;
#X connect 26 0 6 0;
#X connect 27 0 18 0;
#X connect 29 0 9 0;
#X connect 30 0 6 0;
#X connect 31 0 6 0;
#X connect 32 0 21 0;
#X connect 32 1 14 0;
